<svg width="62" height="31" viewBox="0 0 62 31" fill="none" xmlns="http://www.w3.org/2000/svg">
<path d="M1.632 24V7.2H7.848C9.192 7.2 10.304 7.424 11.184 7.872C12.064 8.32 12.72 8.936 13.152 9.72C13.584 10.504 13.8 11.384 13.8 12.36C13.8 13.288 13.592 14.144 13.176 14.928C12.76 15.696 12.112 16.32 11.232 16.8C10.352 17.264 9.224 17.496 7.848 17.496H4.704V24H1.632ZM4.704 15H7.656C8.728 15 9.496 14.768 9.96 14.304C10.44 13.824 10.68 13.176 10.68 12.36C10.68 11.528 10.44 10.88 9.96 10.416C9.496 9.936 8.728 9.696 7.656 9.696H4.704V15ZM19.0808 24.288C17.9288 24.288 16.8888 24.024 15.9608 23.496C15.0488 22.968 14.3208 22.24 13.7768 21.312C13.2488 20.368 12.9848 19.28 12.9848 18.048C12.9848 16.816 13.2568 15.736 13.8008 14.808C14.3448 13.864 15.0728 13.128 15.9848 12.6C16.9128 12.072 17.9528 11.808 19.1048 11.808C20.2408 11.808 21.2648 12.072 22.1768 12.6C23.1048 13.128 23.8328 13.864 24.3608 14.808C24.9048 15.736 25.1768 16.816 25.1768 18.048C25.1768 19.28 24.9048 20.368 24.3608 21.312C23.8328 22.24 23.1048 22.968 22.1768 23.496C21.2488 24.024 20.2168 24.288 19.0808 24.288ZM19.0808 21.624C19.8808 21.624 20.5768 21.328 21.1688 20.736C21.7608 20.128 22.0568 19.232 22.0568 18.048C22.0568 16.864 21.7608 15.976 21.1688 15.384C20.5768 14.776 19.8888 14.472 19.1048 14.472C18.2888 14.472 17.5848 14.776 16.9928 15.384C16.4168 15.976 16.1288 16.864 16.1288 18.048C16.1288 19.232 16.4168 20.128 16.9928 20.736C17.5848 21.328 18.2808 21.624 19.0808 21.624ZM30.6834 24.288C29.6274 24.288 28.6994 24.12 27.8994 23.784C27.0994 23.432 26.4594 22.952 25.9794 22.344C25.4994 21.736 25.2114 21.032 25.1154 20.232H28.2114C28.3074 20.696 28.5634 21.096 28.9794 21.432C29.4114 21.752 29.9634 21.912 30.6354 21.912C31.3074 21.912 31.7954 21.776 32.0994 21.504C32.4194 21.232 32.5794 20.92 32.5794 20.568C32.5794 20.056 32.3554 19.712 31.9074 19.536C31.4594 19.344 30.8354 19.16 30.0354 18.984C29.5234 18.872 29.0034 18.736 28.4754 18.576C27.9474 18.416 27.4594 18.216 27.0114 17.976C26.5794 17.72 26.2274 17.4 25.9554 17.016C25.6834 16.616 25.5474 16.128 25.5474 15.552C25.5474 14.496 25.9634 13.608 26.7954 12.888C27.6434 12.168 28.8274 11.808 30.3474 11.808C31.7554 11.808 32.8754 12.136 33.7074 12.792C34.5554 13.448 35.0594 14.352 35.2194 15.504H32.3154C32.1394 14.624 31.4754 14.184 30.3234 14.184C29.7474 14.184 29.2994 14.296 28.9794 14.52C28.6754 14.744 28.5234 15.024 28.5234 15.36C28.5234 15.712 28.7554 15.992 29.2194 16.2C29.6834 16.408 30.2994 16.6 31.0674 16.776C31.8994 16.968 32.6594 17.184 33.3474 17.424C34.0514 17.648 34.6114 17.992 35.0274 18.456C35.4434 18.904 35.6514 19.552 35.6514 20.4C35.6674 21.136 35.4754 21.8 35.0754 22.392C34.6754 22.984 34.0994 23.448 33.3474 23.784C32.5954 24.12 31.7074 24.288 30.6834 24.288ZM41.1418 24C39.8938 24 38.8938 23.696 38.1418 23.088C37.3898 22.48 37.0138 21.4 37.0138 19.848V14.664H34.9738V12.096H37.0138L37.3738 8.904H40.0858V12.096H43.3018V14.664H40.0858V19.872C40.0858 20.448 40.2058 20.848 40.4458 21.072C40.7018 21.28 41.1338 21.384 41.7418 21.384H43.2298V24H41.1418ZM43.7794 24V6.72H46.8514V24H43.7794ZM47.8303 24V12.096H50.5663L50.8543 14.328C51.2863 13.56 51.8703 12.952 52.6063 12.504C53.3583 12.04 54.2383 11.808 55.2463 11.808V15.048H54.3823C53.7103 15.048 53.1103 15.152 52.5823 15.36C52.0543 15.568 51.6383 15.928 51.3343 16.44C51.0463 16.952 50.9023 17.664 50.9023 18.576V24H47.8303Z" fill="black"/>
<circle cx="59" cy="21" r="3" fill="#335bf1"/>
</svg>
