<svg width="17" height="31" viewBox="0 0 17 31" fill="none" xmlns="http://www.w3.org/2000/svg">

<circle cx="14" cy="21" r="3" fill="#335bf1"/>
<path d="M1.632 24V7.2H7.848C9.192 7.2 10.304 7.424 11.184 7.872C12.064 8.32 12.72 8.936 13.152 9.72C13.584 10.504 13.8 11.384 13.8 12.36C13.8 13.288 13.592 14.144 13.176 14.928C12.76 15.696 12.112 16.32 11.232 16.8C10.352 17.264 9.224 17.496 7.848 17.496H4.704V24H1.632ZM4.704 15H7.656C8.728 15 9.496 14.768 9.96 14.304C10.44 13.824 10.68 13.176 10.68 12.36C10.68 11.528 10.44 10.88 9.96 10.416C9.496 9.936 8.728 9.696 7.656 9.696H4.704V15Z" fill="black"/>
</svg>
